<?xml version="1.0" encoding="utf-8"?>
<!-- Generator: Adobe Illustrator 25.4.1, SVG Export Plug-In . SVG Version: 6.00 Build 0)  -->
<svg version="1.1" id="_01" xmlns="http://www.w3.org/2000/svg" xmlns:xlink="http://www.w3.org/1999/xlink" x="0px" y="0px"
	 viewBox="0 0 16 16" style="enable-background:new 0 0 16 16;" xml:space="preserve">
<style type="text/css">
	.st0{fill:#FFFFFF;}
</style>
<path class="st0" d="M8,0.1C3.6,0.1,0.1,3.6,0.1,8s3.5,7.9,7.9,7.9s7.9-3.5,7.9-7.9S12.4,0.1,8,0.1z M14.8,8c0,0.7-0.1,1.3-0.3,1.9
	h-2.9c0.1-0.6,0.1-1.3,0.1-1.9c0-0.7,0-1.3-0.1-1.9h2.9C14.7,6.7,14.8,7.3,14.8,8z M8,14.7c-0.5,0-1.2-0.6-1.7-1.7
	c-0.3-0.6-0.5-1.3-0.7-2.1h4.7c-0.2,0.8-0.4,1.5-0.7,2.1C9.2,14.1,8.5,14.7,8,14.7z M5.5,9.9C5.4,9.3,5.4,8.6,5.4,8
	c0-0.7,0-1.3,0.1-1.9h5.1c0.1,0.6,0.1,1.3,0.1,1.9c0,0.7,0,1.3-0.1,1.9H5.5z M1.5,9.9C1.3,9.3,1.2,8.6,1.2,8c0-0.7,0.1-1.3,0.3-1.9
	h2.9C4.3,6.7,4.2,7.3,4.2,8c0,0.7,0,1.3,0.1,1.9H1.5z M8,1.2c0.5,0,1.2,0.6,1.7,1.7c0.3,0.6,0.5,1.3,0.7,2.1H5.7
	c0.2-0.8,0.4-1.5,0.7-2.1C6.8,1.8,7.5,1.2,8,1.2z M12.8,3.2c0.5,0.5,1,1.1,1.3,1.8h-2.6c-0.3-1.4-0.7-2.5-1.3-3.4
	c0.2,0.1,0.3,0.1,0.5,0.2C11.4,2.1,12.2,2.6,12.8,3.2z M3.2,3.2c0.6-0.6,1.3-1.1,2.2-1.5c0.2-0.1,0.3-0.1,0.5-0.2
	c-0.6,0.9-1,2-1.3,3.4H1.9C2.3,4.3,2.7,3.7,3.2,3.2z M3.2,12.8c-0.5-0.5-0.9-1.1-1.3-1.8h2.6c0.3,1.4,0.7,2.5,1.3,3.4
	c-0.2-0.1-0.3-0.1-0.5-0.2C4.6,13.9,3.8,13.4,3.2,12.8z M12.8,12.8c-0.6,0.6-1.3,1.1-2.2,1.5c-0.2,0.1-0.3,0.1-0.5,0.2
	c0.6-0.8,1-2,1.3-3.4h2.6C13.7,11.7,13.3,12.2,12.8,12.8z"/>
</svg>
